STARTFONT 0.0
SIZE 13 72 72
FONTBOUNDINGBOX 5 11 0 0
STARTPROPERTIES 20
FAMILY_NAME "Spleen"
WEIGHT_NAME "Medium"
FONT_VERSION "2.2.0"
FOUNDRY "misc"
SLANT "R"
SETWIDTH_NAME "Normal"
PIXEL_SIZE 12
POINT_SIZE 120
RESOLUTION_X 72
RESOLUTION_Y 72
SPACING "C"
AVERAGE_WIDTH 60
CHARSET_REGISTRY "ISO10646"
CHARSET_ENCODING "1"
MIN_SPACE 6
FONT_DESCENT 2
FONT_ASCENT 9
DEFAULT_CHAR 32
ENDPROPERTIES
CHARS 103
STARTCHAR
ENCODING 32
SWIDTH 500 0
DWIDTH 6 0
BBX 0 0 0 0
BITMAP
ENDCHAR
STARTCHAR
ENCODING 33
SWIDTH 500 0
DWIDTH 6 0
BBX 1 7 2 2
BITMAP
80
00
80
80
80
80
80
ENDCHAR
STARTCHAR
ENCODING 34
SWIDTH 500 0
DWIDTH 6 0
BBX 3 2 1 7
BITMAP
a0
a0
ENDCHAR
STARTCHAR
ENCODING 35
SWIDTH 500 0
DWIDTH 6 0
BBX 5 7 0 2
BITMAP
50
50
f8
50
f8
50
50
ENDCHAR
STARTCHAR
ENCODING 36
SWIDTH 500 0
DWIDTH 6 0
BBX 5 9 0 1
BITMAP
20
70
a8
28
70
a0
a8
70
20
ENDCHAR
STARTCHAR
ENCODING 37
SWIDTH 500 0
DWIDTH 6 0
BBX 5 7 0 2
BITMAP
98
58
40
20
10
d0
c8
ENDCHAR
STARTCHAR
ENCODING 38
SWIDTH 500 0
DWIDTH 6 0
BBX 5 7 0 2
BITMAP
68
90
a8
40
80
90
60
ENDCHAR
STARTCHAR
ENCODING 39
SWIDTH 500 0
DWIDTH 6 0
BBX 1 2 2 7
BITMAP
80
80
ENDCHAR
STARTCHAR
ENCODING 40
SWIDTH 500 0
DWIDTH 6 0
BBX 2 7 2 2
BITMAP
40
80
80
80
80
80
40
ENDCHAR
STARTCHAR
ENCODING 41
SWIDTH 500 0
DWIDTH 6 0
BBX 2 7 1 2
BITMAP
80
40
40
40
40
40
80
ENDCHAR
STARTCHAR
ENCODING 42
SWIDTH 500 0
DWIDTH 6 0
BBX 5 5 0 3
BITMAP
20
a8
70
a8
20
ENDCHAR
STARTCHAR
ENCODING 43
SWIDTH 500 0
DWIDTH 6 0
BBX 5 5 0 3
BITMAP
20
20
f8
20
20
ENDCHAR
STARTCHAR
ENCODING 44
SWIDTH 500 0
DWIDTH 6 0
BBX 2 2 1 1
BITMAP
80
40
ENDCHAR
STARTCHAR
ENCODING 45
SWIDTH 500 0
DWIDTH 6 0
BBX 5 1 0 5
BITMAP
f8
ENDCHAR
STARTCHAR
ENCODING 46
SWIDTH 500 0
DWIDTH 6 0
BBX 1 1 2 2
BITMAP
80
ENDCHAR
STARTCHAR
ENCODING 47
SWIDTH 500 0
DWIDTH 6 0
BBX 5 7 0 2
BITMAP
80
40
40
20
10
10
08
ENDCHAR
STARTCHAR
ENCODING 48
SWIDTH 500 0
DWIDTH 6 0
BBX 5 7 0 2
BITMAP
70
88
88
a8
88
88
70
ENDCHAR
STARTCHAR
ENCODING 49
SWIDTH 500 0
DWIDTH 6 0
BBX 5 7 0 2
BITMAP
f8
20
20
20
20
60
20
ENDCHAR
STARTCHAR
ENCODING 50
SWIDTH 500 0
DWIDTH 6 0
BBX 5 7 0 2
BITMAP
f8
40
20
10
08
88
70
ENDCHAR
STARTCHAR
ENCODING 51
SWIDTH 500 0
DWIDTH 6 0
BBX 5 7 0 2
BITMAP
70
88
08
30
08
88
70
ENDCHAR
STARTCHAR
ENCODING 52
SWIDTH 500 0
DWIDTH 6 0
BBX 5 7 0 2
BITMAP
08
08
f8
88
48
28
18
ENDCHAR
STARTCHAR
ENCODING 53
SWIDTH 500 0
DWIDTH 6 0
BBX 5 7 0 2
BITMAP
f0
08
08
f0
80
80
f8
ENDCHAR
STARTCHAR
ENCODING 54
SWIDTH 500 0
DWIDTH 6 0
BBX 5 7 0 2
BITMAP
70
88
88
f0
80
88
70
ENDCHAR
STARTCHAR
ENCODING 55
SWIDTH 500 0
DWIDTH 6 0
BBX 5 7 0 2
BITMAP
40
40
40
20
10
08
f8
ENDCHAR
STARTCHAR
ENCODING 56
SWIDTH 500 0
DWIDTH 6 0
BBX 5 7 0 2
BITMAP
70
88
88
70
88
88
70
ENDCHAR
STARTCHAR
ENCODING 57
SWIDTH 500 0
DWIDTH 6 0
BBX 5 7 0 2
BITMAP
08
08
08
78
88
88
78
ENDCHAR
STARTCHAR
ENCODING 58
SWIDTH 500 0
DWIDTH 6 0
BBX 1 5 2 3
BITMAP
80
00
00
00
80
ENDCHAR
STARTCHAR
ENCODING 59
SWIDTH 500 0
DWIDTH 6 0
BBX 2 7 1 1
BITMAP
80
40
40
00
00
00
40
ENDCHAR
STARTCHAR
ENCODING 60
SWIDTH 500 0
DWIDTH 6 0
BBX 3 5 1 3
BITMAP
20
40
80
40
20
ENDCHAR
STARTCHAR
ENCODING 61
SWIDTH 500 0
DWIDTH 6 0
BBX 5 3 0 4
BITMAP
f8
00
f8
ENDCHAR
STARTCHAR
ENCODING 62
SWIDTH 500 0
DWIDTH 6 0
BBX 3 5 1 3
BITMAP
80
40
20
40
80
ENDCHAR
STARTCHAR
ENCODING 63
SWIDTH 500 0
DWIDTH 6 0
BBX 5 7 0 2
BITMAP
20
00
20
10
08
88
70
ENDCHAR
STARTCHAR
ENCODING 64
SWIDTH 500 0
DWIDTH 6 0
BBX 5 7 0 2
BITMAP
70
80
b8
a8
a8
88
70
ENDCHAR
STARTCHAR
ENCODING 65
SWIDTH 500 0
DWIDTH 6 0
BBX 5 7 0 2
BITMAP
88
88
f8
88
88
50
20
ENDCHAR
STARTCHAR
ENCODING 66
SWIDTH 500 0
DWIDTH 6 0
BBX 5 7 0 2
BITMAP
f0
88
88
f0
88
88
f0
ENDCHAR
STARTCHAR
ENCODING 67
SWIDTH 500 0
DWIDTH 6 0
BBX 5 7 0 2
BITMAP
70
88
80
80
80
88
70
ENDCHAR
STARTCHAR
ENCODING 68
SWIDTH 500 0
DWIDTH 6 0
BBX 5 7 0 2
BITMAP
f0
88
88
88
88
88
f0
ENDCHAR
STARTCHAR
ENCODING 69
SWIDTH 500 0
DWIDTH 6 0
BBX 5 7 0 2
BITMAP
f8
80
80
f0
80
80
f8
ENDCHAR
STARTCHAR
ENCODING 70
SWIDTH 500 0
DWIDTH 6 0
BBX 5 7 0 2
BITMAP
80
80
80
f0
80
80
f8
ENDCHAR
STARTCHAR
ENCODING 71
SWIDTH 500 0
DWIDTH 6 0
BBX 5 7 0 2
BITMAP
70
88
88
b8
80
88
70
ENDCHAR
STARTCHAR
ENCODING 72
SWIDTH 500 0
DWIDTH 6 0
BBX 5 7 0 2
BITMAP
88
88
88
f8
88
88
88
ENDCHAR
STARTCHAR
ENCODING 73
SWIDTH 500 0
DWIDTH 6 0
BBX 5 7 0 2
BITMAP
f8
20
20
20
20
20
f8
ENDCHAR
STARTCHAR
ENCODING 74
SWIDTH 500 0
DWIDTH 6 0
BBX 5 7 0 2
BITMAP
70
88
88
08
08
08
08
ENDCHAR
STARTCHAR
ENCODING 75
SWIDTH 500 0
DWIDTH 6 0
BBX 5 7 0 2
BITMAP
88
90
a0
c0
a0
90
88
ENDCHAR
STARTCHAR
ENCODING 76
SWIDTH 500 0
DWIDTH 6 0
BBX 5 7 0 2
BITMAP
f8
80
80
80
80
80
80
ENDCHAR
STARTCHAR
ENCODING 77
SWIDTH 500 0
DWIDTH 6 0
BBX 5 7 0 2
BITMAP
88
88
88
88
a8
d8
88
ENDCHAR
STARTCHAR
ENCODING 78
SWIDTH 500 0
DWIDTH 6 0
BBX 5 7 0 2
BITMAP
88
88
88
98
a8
c8
88
ENDCHAR
STARTCHAR
ENCODING 79
SWIDTH 500 0
DWIDTH 6 0
BBX 5 7 0 2
BITMAP
70
88
88
88
88
88
70
ENDCHAR
STARTCHAR
ENCODING 80
SWIDTH 500 0
DWIDTH 6 0
BBX 5 7 0 2
BITMAP
80
80
80
f0
88
88
f0
ENDCHAR
STARTCHAR
ENCODING 81
SWIDTH 500 0
DWIDTH 6 0
BBX 5 8 0 1
BITMAP
18
70
88
88
88
88
88
70
ENDCHAR
STARTCHAR
ENCODING 82
SWIDTH 500 0
DWIDTH 6 0
BBX 5 7 0 2
BITMAP
88
90
a0
f0
88
88
f0
ENDCHAR
STARTCHAR
ENCODING 83
SWIDTH 500 0
DWIDTH 6 0
BBX 5 7 0 2
BITMAP
70
88
08
70
80
88
70
ENDCHAR
STARTCHAR
ENCODING 84
SWIDTH 500 0
DWIDTH 6 0
BBX 5 7 0 2
BITMAP
20
20
20
20
20
20
f8
ENDCHAR
STARTCHAR
ENCODING 85
SWIDTH 500 0
DWIDTH 6 0
BBX 5 7 0 2
BITMAP
70
88
88
88
88
88
88
ENDCHAR
STARTCHAR
ENCODING 86
SWIDTH 500 0
DWIDTH 6 0
BBX 5 7 0 2
BITMAP
20
50
88
88
88
88
88
ENDCHAR
STARTCHAR
ENCODING 87
SWIDTH 500 0
DWIDTH 6 0
BBX 5 7 0 2
BITMAP
50
a8
a8
88
88
88
88
ENDCHAR
STARTCHAR
ENCODING 88
SWIDTH 500 0
DWIDTH 6 0
BBX 5 7 0 2
BITMAP
88
88
50
20
50
88
88
ENDCHAR
STARTCHAR
ENCODING 89
SWIDTH 500 0
DWIDTH 6 0
BBX 5 7 0 2
BITMAP
20
20
20
50
88
88
88
ENDCHAR
STARTCHAR
ENCODING 90
SWIDTH 500 0
DWIDTH 6 0
BBX 5 7 0 2
BITMAP
f8
80
40
20
10
08
f8
ENDCHAR
STARTCHAR
ENCODING 91
SWIDTH 500 0
DWIDTH 6 0
BBX 2 7 2 2
BITMAP
c0
80
80
80
80
80
c0
ENDCHAR
STARTCHAR
ENCODING 92
SWIDTH 500 0
DWIDTH 6 0
BBX 5 7 0 2
BITMAP
08
10
10
20
40
40
80
ENDCHAR
STARTCHAR
ENCODING 93
SWIDTH 500 0
DWIDTH 6 0
BBX 2 7 1 2
BITMAP
c0
40
40
40
40
40
c0
ENDCHAR
STARTCHAR
ENCODING 94
SWIDTH 500 0
DWIDTH 6 0
BBX 5 3 0 6
BITMAP
88
50
20
ENDCHAR
STARTCHAR
ENCODING 95
SWIDTH 500 0
DWIDTH 6 0
BBX 5 1 0 2
BITMAP
f8
ENDCHAR
STARTCHAR
ENCODING 96
SWIDTH 500 0
DWIDTH 6 0
BBX 2 2 1 7
BITMAP
40
80
ENDCHAR
STARTCHAR
ENCODING 97
SWIDTH 500 0
DWIDTH 6 0
BBX 5 5 0 2
BITMAP
78
88
88
88
78
ENDCHAR
STARTCHAR
ENCODING 98
SWIDTH 500 0
DWIDTH 6 0
BBX 5 7 0 2
BITMAP
f0
88
88
88
f0
80
80
ENDCHAR
STARTCHAR
ENCODING 99
SWIDTH 500 0
DWIDTH 6 0
BBX 5 5 0 2
BITMAP
70
88
80
88
70
ENDCHAR
STARTCHAR
ENCODING 100
SWIDTH 500 0
DWIDTH 6 0
BBX 5 7 0 2
BITMAP
78
88
88
88
78
08
08
ENDCHAR
STARTCHAR
ENCODING 101
SWIDTH 500 0
DWIDTH 6 0
BBX 5 5 0 2
BITMAP
78
80
f8
88
70
ENDCHAR
STARTCHAR
ENCODING 102
SWIDTH 500 0
DWIDTH 6 0
BBX 5 7 0 2
BITMAP
20
20
20
20
f8
20
18
ENDCHAR
STARTCHAR
ENCODING 103
SWIDTH 500 0
DWIDTH 6 0
BBX 5 7 0 0
BITMAP
70
08
78
88
88
88
78
ENDCHAR
STARTCHAR
ENCODING 104
SWIDTH 500 0
DWIDTH 6 0
BBX 5 7 0 2
BITMAP
88
88
88
88
f0
80
80
ENDCHAR
STARTCHAR
ENCODING 105
SWIDTH 500 0
DWIDTH 6 0
BBX 5 7 0 2
BITMAP
f8
20
20
20
e0
00
20
ENDCHAR
STARTCHAR
ENCODING 106
SWIDTH 500 0
DWIDTH 6 0
BBX 5 8 0 1
BITMAP
70
88
08
08
08
38
00
08
ENDCHAR
STARTCHAR
ENCODING 107
SWIDTH 500 0
DWIDTH 6 0
BBX 5 7 0 2
BITMAP
88
90
e0
90
88
80
80
ENDCHAR
STARTCHAR
ENCODING 108
SWIDTH 500 0
DWIDTH 6 0
BBX 5 7 0 2
BITMAP
f8
20
20
20
20
20
e0
ENDCHAR
STARTCHAR
ENCODING 109
SWIDTH 500 0
DWIDTH 6 0
BBX 5 5 0 2
BITMAP
88
88
a8
a8
50
ENDCHAR
STARTCHAR
ENCODING 110
SWIDTH 500 0
DWIDTH 6 0
BBX 5 5 0 2
BITMAP
88
88
88
88
70
ENDCHAR
STARTCHAR
ENCODING 111
SWIDTH 500 0
DWIDTH 6 0
BBX 5 5 0 2
BITMAP
70
88
88
88
70
ENDCHAR
STARTCHAR
ENCODING 112
SWIDTH 500 0
DWIDTH 6 0
BBX 5 7 0 0
BITMAP
80
80
f0
88
88
88
f0
ENDCHAR
STARTCHAR
ENCODING 113
SWIDTH 500 0
DWIDTH 6 0
BBX 5 7 0 0
BITMAP
08
08
78
88
88
88
78
ENDCHAR
STARTCHAR
ENCODING 114
SWIDTH 500 0
DWIDTH 6 0
BBX 5 5 0 2
BITMAP
80
80
80
88
70
ENDCHAR
STARTCHAR
ENCODING 115
SWIDTH 500 0
DWIDTH 6 0
BBX 5 5 0 2
BITMAP
f0
08
70
80
78
ENDCHAR
STARTCHAR
ENCODING 116
SWIDTH 500 0
DWIDTH 6 0
BBX 5 7 0 2
BITMAP
70
88
80
80
f0
80
80
ENDCHAR
STARTCHAR
ENCODING 117
SWIDTH 500 0
DWIDTH 6 0
BBX 5 5 0 2
BITMAP
70
88
88
88
88
ENDCHAR
STARTCHAR
ENCODING 118
SWIDTH 500 0
DWIDTH 6 0
BBX 5 5 0 2
BITMAP
20
50
88
88
88
ENDCHAR
STARTCHAR
ENCODING 119
SWIDTH 500 0
DWIDTH 6 0
BBX 5 5 0 2
BITMAP
50
a8
a8
88
88
ENDCHAR
STARTCHAR
ENCODING 120
SWIDTH 500 0
DWIDTH 6 0
BBX 5 5 0 2
BITMAP
88
50
20
50
88
ENDCHAR
STARTCHAR
ENCODING 121
SWIDTH 500 0
DWIDTH 6 0
BBX 5 7 0 0
BITMAP
70
08
78
88
88
88
88
ENDCHAR
STARTCHAR
ENCODING 122
SWIDTH 500 0
DWIDTH 6 0
BBX 5 5 0 2
BITMAP
f8
40
20
10
f8
ENDCHAR
STARTCHAR
ENCODING 123
SWIDTH 500 0
DWIDTH 6 0
BBX 3 7 1 2
BITMAP
20
40
40
80
40
40
20
ENDCHAR
STARTCHAR
ENCODING 124
SWIDTH 500 0
DWIDTH 6 0
BBX 1 9 2 1
BITMAP
80
80
80
80
80
80
80
80
80
ENDCHAR
STARTCHAR
ENCODING 125
SWIDTH 500 0
DWIDTH 6 0
BBX 3 7 2 2
BITMAP
80
40
40
20
40
40
80
ENDCHAR
STARTCHAR
ENCODING 126
SWIDTH 500 0
DWIDTH 6 0
BBX 5 3 0 4
BITMAP
10
a8
40
ENDCHAR
STARTCHAR
ENCODING 128
SWIDTH 500 0
DWIDTH 6 0
BBX 5 7 0 2
BITMAP
70
88
88
78
08
88
70
ENDCHAR
STARTCHAR
ENCODING 129
SWIDTH 500 0
DWIDTH 6 0
BBX 5 7 0 2
BITMAP
88
88
88
88
88
50
20
ENDCHAR
STARTCHAR
ENCODING 130
SWIDTH 500 0
DWIDTH 6 0
BBX 5 7 0 2
BITMAP
80
80
80
f0
08
08
f0
ENDCHAR
STARTCHAR
ENCODING 131
SWIDTH 500 0
DWIDTH 6 0
BBX 5 7 0 2
BITMAP
70
88
80
60
80
88
70
ENDCHAR
STARTCHAR
ENCODING 132
SWIDTH 500 0
DWIDTH 6 0
BBX 5 7 0 2
BITMAP
70
88
88
50
20
50
88
ENDCHAR
STARTCHAR
ENCODING 133
SWIDTH 500 0
DWIDTH 6 0
BBX 5 7 0 2
BITMAP
88
88
88
c8
a8
98
88
ENDCHAR
STARTCHAR
ENCODING 134
SWIDTH 500 0
DWIDTH 6 0
BBX 5 5 0 2
BITMAP
f8
88
50
50
20
ENDCHAR
STARTCHAR
ENCODING 6
SWIDTH 500 0
DWIDTH 5 0
BBX 11 92 0 2
BITMAP
8000
0000
8020
8000
8020
8500
8500
0000
0000
0000
0100
98a0
22a0
7540
1320
5840
2c00
2060
baa0
18a0
2720
2520
1860
4140
0440
d020
8120
0940
c040
1140
4a00
8a00
0440
9100
3300
0000
0000
0000
0000
0000
0000
0000
0000
0000
0000
0000
0000
0000
0000
0000
0000
0000
0000
0000
0000
0000
0000
0000
0000
0000
0000
0000
20c0
ffe0
ffe0
0000
0ca0
0000
0000
04c0
0200
00c0
0000
0000
a000
74a0
0000
8520
0000
0000
0040
0840
0000
1500
0820
0000
0000
0000
a480
0000
0000
1300
ENDCHAR
ENDFONT
